<svg width="40" height="40" viewBox="0 0 40 40" fill="none" xmlns="http://www.w3.org/2000/svg">
  <defs>
    <linearGradient id="logo-gradient" x1="0%" y1="0%" x2="100%" y2="100%">
      <stop offset="0%" stop-color="#0d9488" />
      <stop offset="100%" stop-color="#10b981" />
    </linearGradient>
    <filter id="shadow" x="-20%" y="-20%" width="140%" height="140%">
      <feGaussianBlur in="SourceAlpha" stdDeviation="1.5" />
      <feOffset dx="0" dy="2" result="offsetblur" />
      <feComponentTransfer>
        <feFuncA type="linear" slope="0.2" />
      </feComponentTransfer>
      <feMerge>
        <feMergeNode />
        <feMergeNode in="SourceGraphic" />
      </feMerge>
    </filter>
  </defs>
  
  <path d="M20 38C28.8366 38 36 30.8366 36 22C36 13.1634 20 2 20 2C20 2 4 13.1634 4 22C4 30.8366 11.1634 38 20 38Z" fill="url(#logo-gradient)" filter="url(#shadow)"/>
  
  <path d="M14 22H26M14 22C14 20.3431 15.3431 19 17 19H23C24.6569 19 26 20.3431 26 22M14 22C14 23.6569 15.3431 25 17 25H23C24.6569 25 26 23.6569 26 22" stroke="white" stroke-width="2.5" stroke-linecap="round" stroke-linejoin="round"/>
  
  <circle cx="20" cy="22" r="1.5" fill="white"/>
</svg>
